<svg width="45" height="45" viewBox="0 0 45 45" fill="none" xmlns="http://www.w3.org/2000/svg">
<path d="M21.3135 0.0527344C17.8506 0.553711 15.0469 2.46973 13.4209 5.44922C12.6475 6.86426 12.2959 8.22656 12.2256 10.1426L12.1729 11.5312L8.93849 13.4033C7.1631 14.4229 5.65138 15.3193 5.58107 15.3896C5.51954 15.46 4.82521 16.6201 4.05177 17.9648C2.44337 20.7598 2.417 20.8477 2.9795 21.2432C3.16407 21.3838 3.77931 21.7441 4.34181 22.0605L5.35255 22.6318L5.36134 28.7578C5.36134 33.2051 5.38771 34.9453 5.46681 35.1035C5.53712 35.2793 7.59376 36.501 13.9395 40.166C18.5713 42.8379 22.4033 45 22.5176 45C22.8252 44.9912 39.375 35.4023 39.5156 35.1475C39.6123 34.9805 39.6299 33.7236 39.6387 28.7842L39.6475 22.6318L40.8076 21.9814C41.4404 21.6211 42.0557 21.252 42.1699 21.1553C42.5391 20.8125 42.46 20.584 40.9483 17.9648C40.1748 16.6201 39.4805 15.4512 39.4102 15.3809C39.3399 15.3105 37.8369 14.4229 36.0615 13.3945L32.8272 11.5312L32.7744 10.1426C32.7217 8.65723 32.5547 7.76953 32.124 6.62695C31.5088 4.9834 30.3399 3.38379 28.9336 2.26758C27.1143 0.826172 25.1367 0.105469 22.8076 0.0439453C22.1309 0.0263672 21.4629 0.0351562 21.3135 0.0527344ZM24.6973 1.69629C26.3057 2.10938 27.6943 2.91797 28.8369 4.10449C30.208 5.51953 30.9815 7.06641 31.2891 8.99121C31.4385 9.89648 31.3594 11.6104 31.1221 12.4893C30.2344 15.8906 27.4395 18.4746 24.0029 19.0723C23.2207 19.2129 21.6123 19.1953 20.8301 19.0371C17.2617 18.334 14.5195 15.6182 13.7813 12.0498C13.6406 11.3555 13.6143 10.9863 13.6494 9.97559C13.7022 8.5957 13.9131 7.68164 14.458 6.53027C15.5039 4.30664 17.6309 2.46094 19.9336 1.79297C21.4629 1.34473 23.2031 1.30957 24.6973 1.69629ZM12.6914 13.4648C12.876 14.1152 13.6143 15.5742 14.0889 16.251C15.0557 17.6221 16.8311 19.0723 18.3516 19.7314C20.9707 20.874 24.0293 20.874 26.6484 19.7314C28.1953 19.0635 30.041 17.5342 30.999 16.1279C31.4561 15.4424 32.001 14.3525 32.2559 13.5967C32.3701 13.2715 32.4844 13.0078 32.5108 13.0078C32.6426 13.0078 37.3975 15.7939 37.3887 15.8643C37.3799 15.9082 34.0225 17.8682 29.9356 20.2324L22.5 24.5303L19.6699 22.8867C14.8272 20.0918 14.3086 19.8018 9.64161 17.0947C8.49025 16.4268 7.57618 15.8555 7.62013 15.8115C7.71681 15.7148 12.419 13.0078 12.4981 13.0078C12.5332 13.0078 12.6123 13.2188 12.6914 13.4648ZM13.9219 21.1904C18.0352 23.5635 21.4277 25.5322 21.4629 25.5674C21.5068 25.6025 19.6348 28.9863 19.4766 29.1533C19.4766 29.1621 17.9473 28.292 16.084 27.2197C14.2207 26.1387 10.8193 24.1787 8.5254 22.8604C6.23146 21.5332 4.33302 20.4434 4.31544 20.4258C4.26271 20.3818 6.2754 16.8838 6.36329 16.875C6.39845 16.875 9.79982 18.8174 13.9219 21.1904ZM39.7178 18.6416C40.2715 19.6084 40.7022 20.4082 40.6846 20.4258C40.667 20.4434 37.4063 22.3242 33.4424 24.6094C29.4785 26.8945 26.0772 28.8545 25.8838 28.9688L25.5234 29.1709L24.6533 27.6592C24.1787 26.8242 23.7129 26.0244 23.625 25.875L23.4668 25.6025L29.9004 21.8848C33.4424 19.8369 36.835 17.877 37.4414 17.5254C38.0479 17.1738 38.584 16.8838 38.6279 16.8838C38.6807 16.8838 39.1641 17.6748 39.7178 18.6416ZM13.3154 27.2461C16.6904 29.1973 19.5469 30.8145 19.6611 30.832C20.0215 30.9023 20.2764 30.6123 21.0234 29.3115L21.7529 28.0195L21.7793 31.7549C21.7881 33.8115 21.7881 37.1953 21.7793 39.2695L21.7529 43.0488L14.2647 38.7246L6.76759 34.4092V28.9248V23.4492L6.96974 23.5723C7.07521 23.6426 9.93165 25.2949 13.3154 27.2461ZM38.2324 28.9336V34.4092L30.7354 38.7334L23.2471 43.0576L23.2207 39.2783C23.2119 37.1953 23.2119 33.8115 23.2207 31.7549L23.2471 28.0195L23.9766 29.3027C24.7061 30.5859 24.9258 30.8496 25.2686 30.8496C25.374 30.8496 28.3184 29.1885 31.8164 27.167C35.3233 25.1367 38.1973 23.4756 38.2149 23.4756C38.2236 23.4668 38.2324 25.9277 38.2324 28.9336Z" fill="#272727"/>
<path d="M26.3231 5.52832C25.7606 5.66894 25.3915 5.97656 23.37 8.02441L21.2782 10.1514L20.329 9.21094C19.2919 8.18262 18.9755 7.99805 18.2372 7.99805C17.4286 7.99805 16.7782 8.38476 16.4091 9.08789C16.1542 9.58008 16.1454 10.4502 16.4091 10.9424C16.5145 11.1357 17.4198 12.1113 18.4306 13.1045C20.3905 15.0381 20.5048 15.1172 21.3749 15.1172C22.1483 15.1172 22.4296 14.8887 25.5058 11.7422C27.0878 10.1338 28.4765 8.65723 28.5819 8.47266C28.8544 8.00684 28.8632 7.14551 28.5907 6.62695C28.327 6.12598 27.8612 5.74805 27.3163 5.58105C26.8241 5.44043 26.7274 5.43164 26.3231 5.52832ZM27.1669 7.11035C27.3075 7.25098 27.4218 7.45312 27.4218 7.55859C27.4218 7.77832 26.077 9.2373 23.4491 11.8389C21.744 13.5352 21.5419 13.7109 21.2694 13.7109C21.0058 13.7109 20.8124 13.5527 19.327 12.0586C18.246 10.9863 17.6571 10.3271 17.6132 10.1689C17.5253 9.7998 17.8065 9.45703 18.2372 9.42187C18.5536 9.39551 18.6063 9.43945 19.7665 10.5732C20.8739 11.6807 21.0673 11.8125 21.4628 11.7861C21.5419 11.7861 22.6669 10.7051 23.9677 9.39551C25.2597 8.08594 26.4022 6.97851 26.4989 6.94336C26.789 6.82031 26.8944 6.84668 27.1669 7.11035Z" fill="#D6B7A6"/>
</svg>
